<?xml version="1.0" standalone="no"?>
<!DOCTYPE svg PUBLIC "-//W3C//DTD SVG 20010904//EN"
 "http://www.w3.org/TR/2001/REC-SVG-20010904/DTD/svg10.dtd">
<svg version="1.0" xmlns="http://www.w3.org/2000/svg"
 width="134.000000pt" height="134.000000pt" viewBox="0 0 134.000000 134.000000"
 preserveAspectRatio="xMidYMid meet">
<metadata>
Created by potrace 1.14, written by Peter Selinger 2001-2017
</metadata>
<g transform="translate(0.000000,134.000000) scale(0.100000,-0.100000)"
fill="#000000" stroke="none">
<path d="M609 1326 c-2 -2 -26 -7 -54 -11 -52 -7 -176 -51 -186 -67 -3 -6 -8
-8 -10 -7 -4 3 -46 -23 -78 -46 -50 -38 -163 -165 -160 -181 0 -4 -3 -10 -8
-13 -21 -16 -67 -127 -80 -196 -12 -62 -8 -255 6 -300 26 -82 54 -145 64 -145
6 0 7 -3 4 -7 -13 -12 34 -74 118 -158 82 -82 187 -143 274 -160 11 -2 25 -6
30 -9 39 -24 230 -25 291 -2 8 3 28 8 44 10 36 6 196 85 196 97 0 5 5 9 11 9
19 0 125 114 168 180 61 96 101 230 101 345 0 49 -5 107 -11 129 -6 21 -12 46
-14 56 -2 10 -14 42 -26 71 -85 202 -266 350 -481 393 -71 15 -189 22 -199 12z"/>
</g>
</svg>
